<svg xmlns="http://www.w3.org/2000/svg">
  <symbol id="arrow" viewBox="0 0 24 24"><path d="M5 12h14M14 7l5 5-5 5"/></symbol>
  <symbol id="download" viewBox="0 0 24 24"><path d="M12 3v12m0 0 5-5m-5 5-5-5M5 21h14"/></symbol>
  <symbol id="windows" viewBox="0 0 24 24"><path d="M3 4.5 10.5 3v8H3zm9 6.5V2.8L21 1v10zM3 12.5h7.5v8L3 19zm9 0h9v10l-9-1.8z" fill="currentColor" stroke="none"/></symbol>
  <symbol id="spark" viewBox="0 0 24 24"><path d="m12 2 1.8 7.2L21 12l-7.2 2.8L12 22l-1.8-7.2L3 12l7.2-2.8z"/></symbol>
  <symbol id="check" viewBox="0 0 24 24"><path d="m5 12 4 4L19 6"/></symbol>
  <symbol id="key" viewBox="0 0 24 24"><circle cx="8" cy="15" r="4"/><path d="m11 12 8-8m-3 3 3 3m-6 0 3 3"/></symbol>
  <symbol id="unlock" viewBox="0 0 24 24"><rect x="4" y="10" width="16" height="11" rx="3"/><path d="M8 10V7a4 4 0 0 1 7.5-2"/></symbol>
  <symbol id="sliders" viewBox="0 0 24 24"><path d="M4 6h4m4 0h8M4 12h10m4 0h2M4 18h2m4 0h10"/><circle cx="10" cy="6" r="2"/><circle cx="16" cy="12" r="2"/><circle cx="8" cy="18" r="2"/></symbol>
  <symbol id="bot" viewBox="0 0 24 24"><rect x="4" y="7" width="16" height="13" rx="4"/><path d="M12 3v4M8 12h.01M16 12h.01M8 16h8"/></symbol>
  <symbol id="ticket" viewBox="0 0 24 24"><path d="M4 5h16v5a2 2 0 0 0 0 4v5H4v-5a2 2 0 0 0 0-4zM12 8v8"/></symbol>
  <symbol id="send" viewBox="0 0 24 24"><path d="m3 11 18-8-8 18-2-8zM11 13l4-4"/></symbol>
  <symbol id="help" viewBox="0 0 24 24"><circle cx="12" cy="12" r="9"/><path d="M9.8 9a2.4 2.4 0 1 1 3.6 2.1c-.9.5-1.4 1-1.4 2M12 17h.01"/></symbol>
  <symbol id="window" viewBox="0 0 24 24"><rect x="3" y="4" width="18" height="16" rx="3"/><path d="M3 9h18M7 6.5h.01M10 6.5h.01"/></symbol>
</svg>
